HIERARCHY
ROOT Hips
{
	OFFSET 0.000000 0.000000 0.000000
	CHANNELS 6 Xposition Yposition Zposition Zrotation Yrotation Xrotation 
	JOINT LHipJoint
	{
		OFFSET 0.000000 0.000000 0.000000
		CHANNELS 3 Zrotation Yrotation Xrotation
		JOINT LeftUpLeg
		{
			OFFSET 1.363060 -1.794630 0.839290
			CHANNELS 3 Zrotation Yrotation Xrotation
			JOINT LeftLeg
			{
				OFFSET 2.448110 -6.726130 0.000000
				CHANNELS 3 Zrotation Yrotation Xrotation
				JOINT LeftFoot
				{
					OFFSET 2.562200 -7.039590 0.000000
					CHANNELS 3 Zrotation Yrotation Xrotation
					JOINT LeftToeBase
					{
						OFFSET 0.157640 -0.433110 2.322550
						CHANNELS 3 Zrotation Yrotation Xrotation
						End Site
						{
							OFFSET 0.000000 0.000000 0.000000
						}
					}
				}
			}
		}
	}
	JOINT RHipJoint
	{
		OFFSET 0.000000 0.000000 0.000000
		CHANNELS 3 Zrotation Yrotation Xrotation
		JOINT RightUpLeg
		{
			OFFSET -1.305520 -1.794630 0.839290
			CHANNELS 3 Zrotation Yrotation Xrotation
			JOINT RightLeg
			{
				OFFSET -2.542530 -6.985550 0.000000
				CHANNELS 3 Zrotation Yrotation Xrotation
				JOINT RightFoot
				{
					OFFSET -2.568260 -7.056230 0.000000
					CHANNELS 3 Zrotation Yrotation Xrotation
					JOINT RightToeBase
					{
						OFFSET -0.164730 -0.452590 2.363150
						CHANNELS 3 Zrotation Yrotation Xrotation
						End Site
						{
							OFFSET 0.000000 0.000000 0.000000
						}
					}
				}
			}
		}
	}
	JOINT LowerBack
	{
		OFFSET 0.000000 0.000000 0.000000
		CHANNELS 3 Zrotation Yrotation Xrotation
		JOINT Spine
		{
			OFFSET 0.028270 2.035590 -0.193380
			CHANNELS 3 Zrotation Yrotation Xrotation
			JOINT Spine1
			{
				OFFSET 0.056720 2.048850 -0.042750
				CHANNELS 3 Zrotation Yrotation Xrotation
				JOINT Neck
				{
					OFFSET 0.000000 0.000000 0.000000
					CHANNELS 3 Zrotation Yrotation Xrotation
					JOINT Neck1
					{
						OFFSET -0.054170 1.746240 0.172020
						CHANNELS 3 Zrotation Yrotation Xrotation
						JOINT Head
						{
							OFFSET 0.104070 1.761360 -0.123970
							CHANNELS 3 Zrotation Yrotation Xrotation
							End Site
							{
								OFFSET 0.000000 0.000000 0.000000
							}
						}
					}
				}
				JOINT LeftShoulder
				{
					OFFSET 0.000000 0.000000 0.000000
					CHANNELS 3 Zrotation Yrotation Xrotation
					JOINT LeftArm
					{
						OFFSET 3.362410 1.200890 -0.311210
						CHANNELS 3 Zrotation Yrotation Xrotation
						JOINT LeftForeArm
						{
							OFFSET 4.983000 -0.000000 -0.000000
							CHANNELS 3 Zrotation Yrotation Xrotation
							JOINT LeftHand
							{
								OFFSET 3.483560 -0.000000 -0.000000
								CHANNELS 3 Zrotation Yrotation Xrotation
								JOINT LeftFingerBase
								{
									OFFSET 0.000000 0.000000 0.000000
									CHANNELS 3 Zrotation Yrotation Xrotation
									JOINT LeftHandIndex1
									{
										OFFSET 0.715260 -0.000000 -0.000000
										CHANNELS 3 Zrotation Yrotation Xrotation
										End Site
										{
											OFFSET 0.000000 0.000000 0.000000
										}
									}
								}
								JOINT LThumb
								{
									OFFSET 0.000000 0.000000 0.000000
									CHANNELS 3 Zrotation Yrotation Xrotation
									End Site
									{
										OFFSET 0.000000 0.000000 0.000000
									}
								}
							}
						}
					}
				}
				JOINT RightShoulder
				{
					OFFSET 0.000000 0.000000 0.000000
					CHANNELS 3 Zrotation Yrotation Xrotation
					JOINT RightArm
					{
						OFFSET -3.136600 1.374050 -0.404650
						CHANNELS 3 Zrotation Yrotation Xrotation
						JOINT RightForeArm
						{
							OFFSET -5.241900 -0.000000 -0.000000
							CHANNELS 3 Zrotation Yrotation Xrotation
							JOINT RightHand
							{
								OFFSET -3.444170 -0.000000 -0.000000
								CHANNELS 3 Zrotation Yrotation Xrotation
								JOINT RightFingerBase
								{
									OFFSET 0.000000 0.000000 0.000000
									CHANNELS 3 Zrotation Yrotation Xrotation
									JOINT RightHandIndex1
									{
										OFFSET -0.622530 -0.000000 -0.000000
										CHANNELS 3 Zrotation Yrotation Xrotation
										End Site
										{
											OFFSET 0.000000 0.000000 0.000000
										}
									}
								}
								JOINT RThumb
								{
									OFFSET 0.000000 0.000000 0.000000
									CHANNELS 3 Zrotation Yrotation Xrotation
									End Site
									{
										OFFSET 0.000000 0.000000 0.000000
									}
								}
							}
						}
					}
				}
			}
		}
	}
}
MOTION
Frames: 7
Frame Time: 0.008333
11.231064 17.113681 -5.692295 -73.732705 86.803694 -46.730739 3.810862 -0.964641 -1.376690 -20.930039 -8.683135 -52.190113 0.986050 11.025492 26.644416 -0.340834 6.219076 7.557417 0.007900 0.572500 1.573200 -3.699386 0.826528 -0.800267 21.991084 16.120662 -29.802555 -7.505640 -17.747946 52.656638 0.460054 -5.317456 -9.844289 -1.271200 7.146100 -20.149000 0.359579 -0.317863 29.624510 0.865900 0.185987 -0.124811 -2.507204 0.330297 -7.957231 -1.704392 1.720386 4.004063 6.389502 1.433271 -8.961075 0.733300 0.277500 -7.299200 -5.779440 -6.708917 2.062863 -73.381664 -0.637098 32.701996 14.765898 -25.260327 -4.482992 -1.289792 -0.969027 -21.530861 20.162963 8.398957 3.473900 -7.125000 0.000000 0.000000 -4.515500 39.366100 0.628400 6.950763 5.236218 1.392367 75.553797 -1.691949 33.577946 -18.121165 29.429332 -5.696094 1.054410 -0.026098 -3.307009 -19.228517 -5.823880 2.100100 7.125000 0.000000 0.000000 5.391200 -36.004900 1.196400 
11.131798 17.109420 -5.676288 -73.424473 86.783190 -46.572690 3.780015 -0.988488 -1.393164 -20.876501 -8.571123 -52.245832 0.926284 10.911080 26.301538 -0.338180 6.397917 8.098231 0.005700 0.487800 1.340500 -3.620046 0.829366 -0.807452 22.224892 16.070820 -28.979281 -7.069414 -17.410359 51.251483 0.321158 -4.993652 -11.129675 -1.330900 7.305400 -20.623500 0.325952 -0.317993 29.639730 0.860344 0.172637 -0.120975 -2.521006 0.324225 -7.951662 -1.707916 1.731892 4.053056 6.405712 1.448871 -8.947826 0.743600 0.284400 -7.307300 -5.784752 -6.703937 2.064509 -73.369283 -0.582552 32.746865 14.767947 -25.268316 -4.483459 -1.289585 -0.964842 -21.553938 20.195309 8.325083 3.448800 -7.125000 0.000000 0.000000 -4.479400 39.285400 0.632300 6.942726 5.230139 1.391743 75.583057 -1.746018 33.646325 -18.173742 29.488158 -5.718348 1.049783 -0.027401 -3.400561 -19.208651 -5.749980 2.069400 7.125000 0.000000 0.000000 5.404000 -35.923000 1.210100 
11.030348 17.105262 -5.659449 -73.361503 86.762563 -46.657363 3.749865 -1.012118 -1.411424 -20.824990 -8.449213 -52.302739 0.863645 10.789947 25.939332 -0.332290 6.578105 8.658420 0.004000 0.410500 1.127900 -3.544705 0.830528 -0.811769 22.472180 15.996120 -28.226297 -6.675442 -17.090225 49.959884 0.192077 -4.775771 -12.463023 -1.353600 7.364900 -20.800900 0.306806 -0.318693 29.653150 0.855421 0.163262 -0.117265 -2.537925 0.319849 -7.946580 -1.712402 1.739755 4.102574 6.427215 1.459909 -8.932863 0.757100 0.289200 -7.314500 -5.789793 -6.698888 2.066083 -73.359456 -0.538387 32.797419 14.770720 -25.275308 -4.483490 -1.288088 -0.961132 -21.569780 20.204537 8.257090 3.422100 -7.125000 0.000000 0.000000 -4.465000 39.210500 0.638500 6.935136 5.224791 1.391011 75.613521 -1.805182 33.702705 -18.210985 29.532269 -5.734345 1.044981 -0.034581 -3.466973 -19.241364 -5.610519 2.018500 7.125000 0.000000 0.000000 5.366100 -35.768600 1.221800 
10.926612 17.101312 -5.642298 -73.453826 86.735430 -46.890770 3.720483 -1.035599 -1.431328 -20.767379 -8.321621 -52.366323 0.799923 10.664106 25.563957 -0.326064 6.772361 9.227575 0.002900 0.345600 0.949500 -3.474009 0.830845 -0.813643 22.727633 15.911502 -27.548305 -6.320397 -16.789388 48.776493 0.075754 -4.654562 -13.770748 -1.333200 7.311500 -20.641500 0.302472 -0.320147 29.658140 0.851565 0.157718 -0.113507 -2.557122 0.317161 -7.936365 -1.713533 1.746735 4.143094 6.446808 1.469862 -8.911029 0.768600 0.293500 -7.316300 -5.793508 -6.693629 2.067247 -73.355539 -0.505798 32.830439 14.776799 -25.284520 -4.484771 -1.284940 -0.960363 -21.551363 20.174871 8.234533 3.408100 -7.125000 0.000000 0.000000 -4.491000 39.185300 0.645000 6.928702 5.219741 1.390269 75.639878 -1.862772 33.761843 -18.240483 29.569004 -5.747234 1.041016 -0.043634 -3.514385 -19.302734 -5.459339 1.965500 7.125000 0.000000 0.000000 5.302800 -35.601500 1.229000 
10.821213 17.097362 -5.625147 -73.553413 86.685697 -47.131998 3.691551 -1.058962 -1.452945 -20.686058 -8.185277 -52.430956 0.737399 10.536101 25.182300 -0.323806 6.998157 9.796447 0.002000 0.290700 0.798800 -3.407666 0.830966 -0.813420 22.995745 15.830431 -26.937956 -5.996716 -16.505509 47.681834 -0.031151 -4.592137 -15.003050 -1.283500 7.179200 -20.247500 0.320030 -0.316178 29.659285 0.848051 0.165799 -0.109136 -2.586678 0.320709 -7.923231 -1.707075 1.754040 4.181818 6.462060 1.480638 -8.884473 0.776300 0.297900 -7.315700 -5.795907 -6.687787 2.068217 -73.357174 -0.475968 32.861199 14.788812 -25.299249 -4.488472 -1.280849 -0.961932 -21.531561 20.127436 8.240026 3.403000 -7.125000 0.000000 0.000000 -4.536100 39.191400 0.650800 6.923335 5.214771 1.389736 75.663994 -1.919006 33.821774 -18.261360 29.597938 -5.756709 1.038254 -0.053405 -3.539787 -19.384317 -5.315409 1.916800 7.125000 0.000000 0.000000 5.222800 -35.442200 1.230600 
10.713734 17.093308 -5.607788 -73.682230 86.611633 -47.398990 3.663212 -1.082298 -1.476171 -20.574663 -8.042182 -52.504610 0.677401 10.408058 24.800853 -0.326117 7.256089 10.356290 0.001700 0.265000 0.728100 -3.345282 0.831520 -0.811803 23.275494 15.761986 -26.399358 -5.695830 -16.234501 46.651122 -0.131533 -4.567832 -16.161947 -1.205000 6.964300 -19.609600 0.355680 -0.309439 29.651151 0.845807 0.183553 -0.103593 -2.619404 0.328590 -7.900789 -1.700208 1.760338 4.209835 6.475888 1.490370 -8.853307 0.783000 0.302100 -7.310700 -5.796796 -6.681206 2.068726 -73.367180 -0.451637 32.874499 14.806716 -25.319696 -4.495156 -1.276403 -0.964400 -21.512637 20.075698 8.258550 3.402600 -7.125000 0.000000 0.000000 -4.586500 39.212000 0.655700 6.919376 5.209298 1.389606 75.679590 -1.965655 33.898998 -18.279693 29.624689 -5.764796 1.036723 -0.060507 -3.555498 -19.454699 -5.214759 1.883800 7.125000 0.000000 0.000000 5.155700 -35.331100 1.228700 
10.604489 17.089047 -5.590222 -73.709059 86.515324 -47.561851 3.635230 -1.105820 -1.500849 -20.437978 -7.891243 -52.586942 0.620413 10.281304 24.423187 -0.332553 7.546794 10.917248 0.001300 0.236800 0.650700 -3.285728 0.832826 -0.809248 23.560199 15.706635 -25.930342 -5.410607 -15.971741 45.661676 -0.223400 -4.585197 -17.251117 -1.108300 6.688700 -18.796500 0.397177 -0.297238 29.637914 0.845111 0.211217 -0.096937 -2.646425 0.340984 -7.872031 -1.698603 1.768591 4.232578 6.488187 1.501745 -8.820079 0.789500 0.307500 -7.303800 -5.796279 -6.674362 2.068654 -73.390945 -0.427535 32.876891 14.828050 -25.344147 -4.503631 -1.272319 -0.967470 -21.510402 20.032580 8.284930 3.406800 -7.125000 0.000000 0.000000 -4.629900 39.241500 0.658600 6.917579 5.202705 1.390253 75.676748 -2.002086 34.004232 -18.289855 29.643221 -5.768872 1.036087 -0.066979 -3.558298 -19.531026 -5.126686 1.856000 7.125000 0.000000 0.000000 5.084300 -35.234200 1.223600 
